<svg width="165" height="165" viewBox="0 0 165 165" fill="none" xmlns="http://www.w3.org/2000/svg">
<path d="M82.5 165C128.063 165 165 128.063 165 82.5C165 36.9365 128.063 0 82.5 0C36.9365 0 0 36.9365 0 82.5C0 128.063 36.9365 165 82.5 165Z" fill="#F8F8F8"/>
<path d="M79.1987 9C86.5188 9.00018 92.4526 14.9347 92.4526 22.2549C92.4524 29.5749 86.5187 35.5086 79.1987 35.5088C71.8785 35.5088 65.944 29.575 65.9438 22.2549C65.9438 14.9346 71.8784 9 79.1987 9ZM78.9037 15.4805C74.9997 15.4805 71.8346 18.6448 71.8344 22.5488C71.8344 26.453 74.9996 29.6181 78.9037 29.6182C82.8079 29.6182 85.9731 26.453 85.9731 22.5488C85.9729 18.6448 82.8078 15.4805 78.9037 15.4805Z" fill="#011625"/>
<path d="M78.9332 128.645C93.2646 128.645 104.883 117.027 104.883 102.696C104.883 88.364 93.2646 76.7461 78.9332 76.7461C64.6017 76.7461 52.9838 88.364 52.9838 102.696C52.9838 117.027 64.6017 128.645 78.9332 128.645Z" fill="#4CB8BB"/>
<path d="M120.003 83.4013V63.4929C120.003 52.6339 115.689 42.2196 108.011 34.5411C100.332 26.8626 89.9178 22.5488 79.0588 22.5488C68.1997 22.5488 57.7854 26.8626 50.1069 34.5411C42.4284 42.2196 38.1147 52.6339 38.1147 63.4929V83.4013C38.1152 87.9751 36.8213 92.4556 34.3826 96.3251C31.9439 100.194 28.46 103.295 24.3336 105.268C23.3852 105.719 22.5846 106.431 22.025 107.32C21.4655 108.209 21.1699 109.239 21.1729 110.289V110.397C21.1722 110.777 21.2463 111.152 21.391 111.503C21.5357 111.854 21.7481 112.173 22.0162 112.441C22.2842 112.71 22.6025 112.923 22.953 113.068C23.3035 113.213 23.6791 113.288 24.0585 113.288H134.054C134.433 113.288 134.809 113.213 135.159 113.068C135.51 112.923 135.828 112.71 136.096 112.441C136.364 112.173 136.576 111.854 136.721 111.503C136.866 111.152 136.94 110.777 136.939 110.397V110.289C136.94 109.242 136.643 108.216 136.085 107.33C135.527 106.445 134.729 105.735 133.784 105.284C129.655 103.31 126.169 100.207 123.731 96.3344C121.292 92.4618 119.999 87.9778 120.003 83.4013Z" fill="#E6E6E6"/>
<path fill-rule="evenodd" clip-rule="evenodd" d="M137.224 113.269H21.1729V109.734H137.224V113.269Z" fill="#011625"/>
<path fill-rule="evenodd" clip-rule="evenodd" d="M47.1566 122.283C44.3345 124.835 41.5204 127.336 38.774 129.969C38.1811 130.533 38.1588 131.464 38.7197 132.05C39.2824 132.642 40.2181 132.661 40.8054 132.098C43.5386 129.482 46.3282 127.002 49.1315 124.468C49.7354 123.918 49.7822 122.986 49.2419 122.387C48.6942 121.784 47.7606 121.734 47.1566 122.283Z" fill="#011625"/>
<path fill-rule="evenodd" clip-rule="evenodd" d="M110.906 122.283C113.712 124.836 116.51 127.337 119.241 129.97C119.83 130.535 119.848 131.465 119.284 132.05C118.719 132.641 117.785 132.658 117.201 132.096C114.484 129.479 111.71 126.998 108.922 124.464C108.322 123.915 108.28 122.983 108.822 122.385C109.372 121.783 110.305 121.734 110.906 122.283Z" fill="#011625"/>
<path fill-rule="evenodd" clip-rule="evenodd" d="M77.2262 138.774C77.1815 142.571 77.104 146.326 77.1699 150.122C77.1811 150.939 77.848 151.585 78.6585 151.57C79.4744 151.557 80.1231 150.883 80.1094 150.071C80.0468 146.296 80.1226 142.572 80.168 138.802C80.1753 137.987 79.5236 137.322 78.7177 137.314C77.9039 137.308 77.2335 137.959 77.2262 138.774Z" fill="#011625"/>
</svg>
