<svg width="318" height="276" viewBox="0 0 318 276" fill="none" xmlns="http://www.w3.org/2000/svg">
<path d="M51.8097 19.3611C51.7638 19.3611 52.3457 16.5051 52.3993 16.2984C53.0578 14.2541 55.5385 10.7013 57.9351 10.709C58.3343 10.7203 58.7267 10.8156 59.0866 10.9887C59.4464 11.1619 59.7658 11.4089 60.0237 11.7139C60.2817 12.0188 60.4724 12.3746 60.5835 12.7582C60.6946 13.1418 60.7236 13.5446 60.6685 13.9401C60.4924 15.6246 58.9764 17.0641 57.6058 17.891C55.9979 18.894 51.8097 19.3611 51.8097 19.3611Z" fill="#002366"/>
<path d="M47.1625 0.157871C49.4595 0.969484 50.5468 5.15005 50.4702 7.29393C50.4702 7.4777 50.0414 10.3566 50.0031 10.3566H49.9572C50.1333 11.0151 50.3247 11.7272 50.5161 12.5082C50.853 13.9476 51.2206 15.5708 51.5039 17.3778C51.8323 19.3135 52.0471 21.2668 52.147 23.2276C52.2691 25.4247 52.1948 27.6284 51.925 29.8124C51.9214 29.8378 51.9214 29.8635 51.925 29.8889C52.2236 29.2534 53.1118 27.4924 53.1883 27.3699C54.3675 25.5782 57.6905 22.7758 60.0105 23.442C60.3914 23.5581 60.7435 23.7533 61.0439 24.0148C61.3443 24.2762 61.5862 24.5981 61.7539 24.9593C61.9215 25.3206 62.0111 25.7131 62.0167 26.1113C62.0224 26.5095 61.9441 26.9044 61.7868 27.2703C61.1743 28.8476 59.3367 29.8353 57.7977 30.2718C56.0596 30.7694 52.1853 30.1875 51.879 30.1339C51.5516 32.3506 51.0758 34.5428 50.4549 36.6957C50.0976 37.9514 49.7096 39.2046 49.2911 40.4552C49.5591 39.9116 49.8117 39.4292 49.85 39.3679C51.0291 37.5686 54.3598 34.7739 56.6721 35.44C57.0531 35.5562 57.4052 35.7514 57.7056 36.0129C58.006 36.2743 58.2479 36.5962 58.4155 36.9574C58.5832 37.3187 58.6727 37.7112 58.6784 38.1094C58.6841 38.5076 58.6058 38.9025 58.4485 39.2684C57.836 40.8457 55.9984 41.8334 54.4594 42.2698C52.9204 42.7063 49.582 42.2698 48.7092 42.155L48.2268 43.5945C47.4611 45.8915 46.6265 48.1885 45.9298 50.4396C45.6771 51.2052 45.4551 52.0322 45.233 52.8284C45.478 52.3461 45.6848 51.9403 45.723 51.879C46.8945 50.0873 50.2252 47.285 52.5375 47.9511C52.9177 48.0685 53.2691 48.2643 53.569 48.5258C53.869 48.7874 54.1108 49.1088 54.2788 49.4695C54.4469 49.8302 54.5376 50.2221 54.5449 50.62C54.5523 51.0178 54.4762 51.4128 54.3215 51.7795C53.709 53.3644 51.8637 54.3445 50.3247 54.7886C48.7857 55.2327 45.7766 54.8422 44.7353 54.6967C44.5286 55.516 44.3295 56.3352 44.1687 57.1392C44.0692 57.6981 43.939 58.2188 43.8701 58.7777L43.6404 60.4239C43.5332 61.4729 43.4107 62.5525 43.3341 63.5785C43.2729 64.2906 43.2269 64.972 43.181 65.6611C43.426 64.8954 43.9467 63.3105 43.9467 63.188C44.7946 61.5035 46.0599 60.0642 47.6219 59.0074C47.7052 58.8123 47.8105 58.6273 47.9358 58.4561C48.1526 58.1216 48.4375 57.8366 48.772 57.6197C49.1064 57.4029 49.4829 57.259 49.8767 57.1976C50.2706 57.1362 50.673 57.1585 51.0576 57.2633C51.4422 57.368 51.8004 57.5527 52.1087 57.8053C53.931 59.3749 53.4716 63.678 52.6371 65.6535C52.5911 65.7683 51.9097 66.9704 51.4732 67.7284C51.8025 67.3226 52.1087 66.9245 52.4533 66.5187C53.1194 65.6994 53.8085 64.9031 54.5436 64.0455L55.6691 62.8281C56.0366 62.4147 56.4807 62.0625 56.8865 61.6107C57.8436 60.6842 58.862 59.7884 59.9109 58.9079C59.1989 58.326 56.6875 56.2127 55.9677 54.7733C55.248 53.3338 54.735 51.3201 55.4854 49.7964C55.6504 49.433 55.8899 49.1084 56.1885 48.8435C56.487 48.5787 56.8379 48.3795 57.2183 48.259C57.5987 48.1384 58.0003 48.0991 58.3969 48.1437C58.7935 48.1883 59.1763 48.3157 59.5205 48.5177C61.5495 49.7964 61.7562 54.1224 61.2279 56.1744C61.2279 56.3046 60.646 57.7517 60.3321 58.5404C60.9676 58.0197 61.5954 57.4991 62.2539 57.009C64.1528 55.5466 66.1205 54.1148 68.073 52.683L69.857 51.366C69.6044 51.1593 66.5723 48.7091 65.7607 47.0936C65.0486 45.6618 64.5279 43.6404 65.2783 42.1244C65.4424 41.7602 65.6814 41.4347 65.9799 41.1691C66.2783 40.9036 66.6293 40.704 67.0101 40.5833C67.3909 40.4626 67.7929 40.4236 68.1897 40.4688C68.5866 40.5141 68.9695 40.6425 69.3134 40.8457C71.3501 42.1167 71.5492 46.4427 71.0208 48.5024C70.9826 48.6555 70.1939 50.7382 69.9719 51.2588C71.2735 50.2864 72.5675 49.3064 73.8002 48.2804C75.4775 46.9131 77.0633 45.4373 78.5474 43.8624C78.4325 43.7629 75.255 41.2209 74.4281 39.5747C73.7084 38.1429 73.1954 36.1138 73.9457 34.5978C74.1099 34.2347 74.3487 33.9102 74.6465 33.6454C74.9444 33.3806 75.2946 33.1814 75.6744 33.0608C76.0543 32.9402 76.4552 32.9009 76.8513 32.9454C77.2473 32.9899 77.6295 33.1172 77.9731 33.3191C80.0098 34.5978 80.2166 38.9238 79.6883 40.9758C79.6883 41.1137 79.0527 42.6986 78.7541 43.449L78.869 43.5255C80.3195 41.8978 81.6236 40.1452 82.7663 38.2883C83.4094 37.27 83.9607 36.267 84.4814 35.2793C83.8382 34.8658 80.9363 32.944 80.0251 31.5428C79.114 30.1416 78.4249 28.2427 78.9991 26.6501C79.1222 26.2705 79.3239 25.921 79.591 25.6246C79.8582 25.3281 80.1848 25.0912 80.5496 24.9294C80.9144 24.7676 81.3092 24.6844 81.7083 24.6854C82.1074 24.6864 82.5018 24.7714 82.8658 24.935C85.0326 25.984 85.7064 30.2947 85.4078 32.385C85.4078 32.4999 85.1016 33.656 84.8795 34.4906C85.1016 34.0389 85.3466 33.5795 85.5533 33.143C86.319 31.5121 86.9698 29.9655 87.5058 28.549C87.812 27.7833 88.0647 27.0559 88.2714 26.3821C87.8503 25.6165 86.2118 22.6763 86.051 21.0224C85.8902 19.3686 86.1505 17.3625 87.3986 16.214C87.6827 15.9344 88.0226 15.7176 88.396 15.578C88.7695 15.4383 89.1681 15.3788 89.566 15.4034C89.964 15.4279 90.3523 15.536 90.7057 15.7205C91.0592 15.905 91.3698 16.1619 91.6174 16.4743C93.0569 18.3962 91.6863 22.5078 90.4459 24.2536C90.3388 24.4067 88.3863 26.5506 88.3633 26.5506V26.5047C88.1489 27.1555 87.9192 27.8522 87.6436 28.6026C87.1382 29.9961 86.5487 31.5581 85.7907 33.1966C84.9893 34.9895 84.087 36.7355 83.0878 38.4262C81.9729 40.3225 80.6917 42.1161 79.2595 43.7859L79.2059 43.8471C79.8031 43.4796 81.5029 42.4995 81.6484 42.4383C83.6238 41.596 87.9269 41.1213 89.5042 42.9283C89.758 43.2358 89.9443 43.5934 90.0509 43.9776C90.1574 44.3619 90.1819 44.7643 90.1227 45.1586C90.0635 45.553 89.9219 45.9304 89.7071 46.2665C89.4924 46.6025 89.2093 46.8895 88.8763 47.1089C87.4904 48.0889 85.4155 47.8746 83.8841 47.4152C82.1614 46.8639 79.2901 44.2453 79.0298 44.0309C77.5343 45.6993 75.9278 47.2648 74.2214 48.7168C73.2336 49.5667 72.2076 50.3936 71.1587 51.2129C71.687 50.9066 72.1617 50.6386 72.2306 50.608C74.1984 49.7658 78.5015 49.291 80.0787 51.098C80.3338 51.4051 80.521 51.7625 80.6283 52.147C80.7355 52.5314 80.7603 52.9342 80.701 53.3289C80.6418 53.7236 80.4997 54.1014 80.2843 54.4374C80.0689 54.7733 79.7849 55.06 79.4509 55.2786C78.0727 56.2587 75.9901 56.0443 74.4664 55.5849C72.9427 55.1255 70.393 52.905 69.7345 52.3154C69.3287 52.6217 68.9688 52.9356 68.5324 53.2496C66.6106 54.7197 64.704 56.1821 62.8281 57.6828C62.1773 58.2035 61.5571 58.7471 60.9293 59.2907L61.8634 58.7701C63.8312 57.9278 68.1343 57.4454 69.7115 59.2524C69.9656 59.5606 70.1519 59.9187 70.2586 60.3036C70.3652 60.6885 70.3897 61.0914 70.3305 61.4864C70.2713 61.8813 70.1297 62.2594 69.9149 62.5961C69.7001 62.9328 69.4169 63.2205 69.0837 63.4407C67.7055 64.4207 65.6229 64.2063 64.0992 63.7393C62.5755 63.2722 60.2708 61.2738 59.5051 60.5771C58.8849 61.1513 58.2571 61.7256 57.6828 62.3075C57.2923 62.7133 56.9172 63.0732 56.5343 63.5096L55.4318 64.75C54.7656 65.5692 54.0689 66.4038 53.4334 67.2154C52.9893 67.7744 52.5758 68.318 52.1623 68.8693C52.7978 68.3333 54.0842 67.3379 54.199 67.2461C56.0137 66.1129 60.2019 64.949 62.0319 66.5416C62.3284 66.808 62.5656 67.1339 62.728 67.498C62.8903 67.8621 62.9742 68.2562 62.9742 68.6549C62.9742 69.0536 62.8903 69.4477 62.728 69.8118C62.5656 70.1759 62.3284 70.5018 62.0319 70.7682C60.8068 71.9473 58.7241 72.0698 57.1469 71.8248C55.4011 71.5491 52.2466 69.5278 51.8561 69.2368C51.167 70.148 50.5085 71.0285 49.896 71.8784C47.775 74.8109 46.1212 77.3376 44.988 79.114L44.8731 79.2977L43.4031 78.5857L43.6328 78.2335C44.8195 76.4571 46.55 73.9457 48.7551 71.0361C49.4519 70.1097 50.2099 69.1373 50.9985 68.1496C50.1784 67.2534 49.4114 66.31 48.7015 65.3242C47.0094 65.9904 43.5026 66.0133 43.0432 66.0133C42.9743 67.1465 42.913 68.2567 42.8671 69.2981C42.7139 72.912 42.7293 75.9288 42.7675 78.042V78.287L41.152 77.5214C41.152 75.4234 41.2362 72.5904 41.4506 69.2368C41.5195 68.0883 41.619 66.8556 41.7339 65.5922C41.2821 65.4774 37.6299 64.5432 36.2517 63.4407C35.0036 62.4376 33.6867 60.8221 33.7326 59.1223C33.7295 58.7235 33.8105 58.3286 33.9701 57.9631C34.1298 57.5977 34.3646 57.27 34.6593 57.0013C34.954 56.7327 35.3019 56.529 35.6805 56.4037C36.0591 56.2784 36.4598 56.2342 36.8566 56.274C39.2378 56.5802 41.2362 60.4239 41.6267 62.5295C41.6267 62.6597 41.7492 64.0609 41.7951 64.9031C41.8487 64.3901 41.887 63.8848 41.9483 63.3718C42.0478 62.3228 42.1856 61.2815 42.3311 60.1559C42.4153 59.6123 42.5072 59.0687 42.5914 58.5174C42.6757 57.9661 42.8211 57.3995 42.936 56.8329C43.2269 55.5313 43.5792 54.222 43.9696 52.9127C43.0508 52.8208 39.7967 52.438 38.4032 51.634C37.0097 50.83 35.463 49.4365 35.2563 47.7521C35.1923 47.358 35.212 46.955 35.3142 46.5691C35.4165 46.1832 35.5989 45.8232 35.8496 45.5126C36.1002 45.2019 36.4136 44.9476 36.7691 44.7662C37.1247 44.5848 37.5145 44.4803 37.9132 44.4597C40.3097 44.4061 42.8671 47.8975 43.5715 49.9266C43.6174 50.0491 43.962 51.5574 44.1381 52.392C44.3755 51.6263 44.6052 50.8224 44.9038 50.0337C45.6694 47.7367 46.5347 45.4933 47.3769 43.2193C47.6372 42.5225 47.8822 41.8257 48.1426 41.129C47.8133 41.129 43.9314 40.7232 42.3694 39.8273C40.9835 39.0617 39.4369 37.6299 39.2225 35.9454C39.1597 35.5515 39.1803 35.1489 39.283 34.7635C39.3857 34.3782 39.5682 34.0187 39.8187 33.7083C40.0691 33.3979 40.382 33.1436 40.737 32.9618C41.0919 32.78 41.4811 32.6748 41.8794 32.653C44.2836 32.5994 46.8409 36.0909 47.5453 38.1199C47.5989 38.273 48.089 40.4169 48.1885 40.9988C48.7398 39.4675 49.2834 37.9361 49.7198 36.4048C50.3674 34.3374 50.8789 32.2299 51.2512 30.0956C51.0981 30.0956 47.0476 29.7128 45.4474 28.794C44.0539 28.0283 42.5072 26.5965 42.3005 24.9121C42.2364 24.5184 42.2562 24.1157 42.3584 23.7303C42.4607 23.3448 42.6432 22.9853 42.894 22.6753C43.1448 22.3652 43.4582 22.1116 43.8138 21.931C44.1694 21.7504 44.5591 21.6469 44.9574 21.6273C47.3539 21.5661 49.9113 25.0575 50.6157 27.0866C50.6616 27.2167 51.0445 28.8706 51.2052 29.6669H51.3354C51.6517 27.5102 51.7747 25.3296 51.7029 23.151C51.7029 21.9489 51.5881 20.808 51.4732 19.6978C50.7076 19.6978 47.2314 19.6978 45.7001 19.0317C44.1687 18.3656 42.5378 17.1711 42.1397 15.5249C42.0335 15.1393 42.0099 14.7356 42.0705 14.3402C42.1311 13.9449 42.2745 13.5667 42.4914 13.2306C42.7082 12.8945 42.9936 12.608 43.3288 12.3898C43.6641 12.1717 44.0416 12.0267 44.4367 11.9645C46.8179 11.6353 49.7428 14.8358 50.6693 16.7653C50.7152 16.8725 51.1134 17.998 51.3814 18.825C51.3278 18.3196 51.2742 17.799 51.2052 17.2936C50.9679 15.4943 50.631 13.8634 50.3247 12.4163C50.141 11.597 49.9649 10.8849 49.7888 10.1729C49.0231 9.79003 46.0217 8.21274 44.9956 6.94173C43.9696 5.67071 43.0508 3.82544 43.4643 2.1869C43.5558 1.79997 43.7275 1.43655 43.9683 1.12016C44.2092 0.803774 44.5137 0.541468 44.8623 0.350212C45.2109 0.158957 45.5958 0.0430124 45.992 0.0098798C46.3882 -0.0232528 46.787 0.0271652 47.1625 0.157871Z" fill="#002366"/>
<path d="M90.5603 37.1328C88.6844 37.0563 84.9326 35.1344 84.9326 35.1344C84.9326 35.1344 86.9463 33.0441 87.0918 32.9293C88.7686 31.597 92.7961 29.9968 94.7945 31.329C95.1211 31.5579 95.3958 31.8531 95.6005 32.1955C95.8052 32.5378 95.9353 32.9195 95.9823 33.3156C96.0292 33.7117 95.992 34.1132 95.8731 34.4939C95.7542 34.8747 95.5562 35.226 95.2922 35.5249C94.2202 36.8342 92.1606 37.2017 90.5603 37.1328Z" fill="#002366"/>
<g opacity="0.5">
<path opacity="0.5" d="M51.8102 19.3611C51.7643 19.3611 52.3462 16.5051 52.3998 16.2984C53.0582 14.2541 55.539 10.7013 57.9356 10.709C58.3348 10.7203 58.7271 10.8156 59.087 10.9887C59.4469 11.1619 59.7663 11.4089 60.0242 11.7139C60.2821 12.0188 60.4729 12.3746 60.584 12.7582C60.6951 13.1418 60.7241 13.5446 60.669 13.9401C60.4929 15.6246 58.9769 17.0641 57.6063 17.891C55.9984 18.894 51.8102 19.3611 51.8102 19.3611Z" fill="white"/>
<path opacity="0.5" d="M47.1625 0.157871C49.4595 0.969484 50.5468 5.15005 50.4702 7.29393C50.4702 7.4777 50.0414 10.3566 50.0031 10.3566H49.9572C50.1333 11.0151 50.3247 11.7272 50.5161 12.5082C50.853 13.9476 51.2206 15.5708 51.5039 17.3778C51.8323 19.3135 52.0471 21.2668 52.147 23.2276C52.2691 25.4247 52.1948 27.6284 51.925 29.8124C51.9214 29.8378 51.9214 29.8635 51.925 29.8889C52.2236 29.2534 53.1118 27.4924 53.1883 27.3699C54.3675 25.5782 57.6905 22.7758 60.0105 23.442C60.3914 23.5581 60.7435 23.7533 61.0439 24.0148C61.3443 24.2762 61.5862 24.5981 61.7539 24.9593C61.9215 25.3206 62.0111 25.7131 62.0167 26.1113C62.0224 26.5095 61.9441 26.9044 61.7868 27.2703C61.1743 28.8476 59.3367 29.8353 57.7977 30.2718C56.0596 30.7694 52.1853 30.1875 51.879 30.1339C51.5516 32.3506 51.0758 34.5428 50.4549 36.6957C50.0976 37.9514 49.7096 39.2046 49.2911 40.4552C49.5591 39.9116 49.8117 39.4292 49.85 39.3679C51.0291 37.5686 54.3598 34.7739 56.6721 35.44C57.0531 35.5562 57.4052 35.7514 57.7056 36.0129C58.006 36.2743 58.2479 36.5962 58.4155 36.9574C58.5832 37.3187 58.6727 37.7112 58.6784 38.1094C58.6841 38.5076 58.6058 38.9025 58.4485 39.2684C57.836 40.8457 55.9984 41.8334 54.4594 42.2698C52.9204 42.7063 49.582 42.2698 48.7092 42.155L48.2268 43.5945C47.4611 45.8915 46.6265 48.1885 45.9298 50.4396C45.6771 51.2052 45.4551 52.0322 45.233 52.8284C45.478 52.3461 45.6848 51.9403 45.723 51.879C46.8945 50.0873 50.2252 47.285 52.5375 47.9511C52.9177 48.0685 53.2691 48.2643 53.569 48.5258C53.869 48.7874 54.1108 49.1088 54.2788 49.4695C54.4469 49.8302 54.5376 50.2221 54.5449 50.62C54.5523 51.0178 54.4762 51.4128 54.3215 51.7795C53.709 53.3644 51.8637 54.3445 50.3247 54.7886C48.7857 55.2327 45.7766 54.8422 44.7353 54.6967C44.5286 55.516 44.3295 56.3352 44.1687 57.1392C44.0692 57.6981 43.939 58.2188 43.8701 58.7777L43.6404 60.4239C43.5332 61.4729 43.4107 62.5525 43.3341 63.5785C43.2729 64.2906 43.2269 64.972 43.181 65.6611C43.426 64.8954 43.9467 63.3105 43.9467 63.188C44.7946 61.5035 46.0599 60.0642 47.6219 59.0074C47.7052 58.8123 47.8105 58.6273 47.9358 58.4561C48.1526 58.1216 48.4375 57.8366 48.772 57.6197C49.1064 57.4029 49.4829 57.259 49.8767 57.1976C50.2706 57.1362 50.673 57.1585 51.0576 57.2633C51.4422 57.368 51.8004 57.5527 52.1087 57.8053C53.931 59.3749 53.4716 63.678 52.6371 65.6535C52.5911 65.7683 51.9097 66.9704 51.4732 67.7284C51.8025 67.3226 52.1087 66.9245 52.4533 66.5187C53.1194 65.6994 53.8085 64.9031 54.5436 64.0455L55.6691 62.8281C56.0366 62.4147 56.4807 62.0625 56.8865 61.6107C57.8436 60.6842 58.862 59.7884 59.9109 58.9079C59.1989 58.326 56.6875 56.2127 55.9677 54.7733C55.248 53.3338 54.735 51.3201 55.4854 49.7964C55.6504 49.433 55.8899 49.1084 56.1885 48.8435C56.487 48.5787 56.8379 48.3795 57.2183 48.259C57.5987 48.1384 58.0003 48.0991 58.3969 48.1437C58.7935 48.1883 59.1763 48.3157 59.5205 48.5177C61.5495 49.7964 61.7562 54.1224 61.2279 56.1744C61.2279 56.3046 60.646 57.7517 60.3321 58.5404C60.9676 58.0197 61.5954 57.4991 62.2539 57.009C64.1528 55.5466 66.1205 54.1148 68.073 52.683L69.857 51.366C69.6044 51.1593 66.5723 48.7091 65.7607 47.0936C65.0486 45.6618 64.5279 43.6404 65.2783 42.1244C65.4424 41.7602 65.6814 41.4347 65.9799 41.1691C66.2783 40.9036 66.6293 40.704 67.0101 40.5833C67.3909 40.4626 67.7929 40.4236 68.1897 40.4688C68.5866 40.5141 68.9695 40.6425 69.3134 40.8457C71.3501 42.1167 71.5492 46.4427 71.0208 48.5024C70.9826 48.6555 70.1939 50.7382 69.9719 51.2588C71.2735 50.2864 72.5675 49.3064 73.8002 48.2804C75.4775 46.9131 77.0633 45.4373 78.5474 43.8624C78.4325 43.7629 75.255 41.2209 74.4281 39.5747C73.7084 38.1429 73.1954 36.1138 73.9457 34.5978C74.1099 34.2347 74.3487 33.9102 74.6465 33.6454C74.9444 33.3806 75.2946 33.1814 75.6744 33.0608C76.0543 32.9402 76.4552 32.9009 76.8513 32.9454C77.2473 32.9899 77.6295 33.1172 77.9731 33.3191C80.0098 34.5978 80.2166 38.9238 79.6883 40.9758C79.6883 41.1137 79.0527 42.6986 78.7541 43.449L78.869 43.5255C80.3195 41.8978 81.6236 40.1452 82.7663 38.2883C83.4094 37.27 83.9607 36.267 84.4814 35.2793C83.8382 34.8658 80.9363 32.944 80.0251 31.5428C79.114 30.1416 78.4249 28.2427 78.9991 26.6501C79.1222 26.2705 79.3239 25.921 79.591 25.6246C79.8582 25.3281 80.1848 25.0912 80.5496 24.9294C80.9144 24.7676 81.3092 24.6844 81.7083 24.6854C82.1074 24.6864 82.5018 24.7714 82.8658 24.935C85.0326 25.984 85.7064 30.2947 85.4078 32.385C85.4078 32.4999 85.1016 33.656 84.8795 34.4906C85.1016 34.0389 85.3466 33.5795 85.5533 33.143C86.319 31.5121 86.9698 29.9655 87.5058 28.549C87.812 27.7833 88.0647 27.0559 88.2714 26.3821C87.8503 25.6165 86.2118 22.6763 86.051 21.0224C85.8902 19.3686 86.1505 17.3625 87.3986 16.214C87.6827 15.9344 88.0226 15.7176 88.396 15.578C88.7695 15.4383 89.1681 15.3788 89.566 15.4034C89.964 15.4279 90.3523 15.536 90.7057 15.7205C91.0592 15.905 91.3698 16.1619 91.6174 16.4743C93.0569 18.3962 91.6863 22.5078 90.4459 24.2536C90.3388 24.4067 88.3863 26.5506 88.3633 26.5506V26.5047C88.1489 27.1555 87.9192 27.8522 87.6436 28.6026C87.1382 29.9961 86.5487 31.5581 85.7907 33.1966C84.9893 34.9895 84.087 36.7355 83.0878 38.4262C81.9729 40.3225 80.6917 42.1161 79.2595 43.7859L79.2059 43.8471C79.8031 43.4796 81.5029 42.4995 81.6484 42.4383C83.6238 41.596 87.9269 41.1213 89.5042 42.9283C89.758 43.2358 89.9443 43.5934 90.0509 43.9776C90.1574 44.3619 90.1819 44.7643 90.1227 45.1586C90.0635 45.553 89.9219 45.9304 89.7071 46.2665C89.4924 46.6025 89.2093 46.8895 88.8763 47.1089C87.4904 48.0889 85.4155 47.8746 83.8841 47.4152C82.1614 46.8639 79.2901 44.2453 79.0298 44.0309C77.5343 45.6993 75.9278 47.2648 74.2214 48.7168C73.2336 49.5667 72.2076 50.3936 71.1587 51.2129C71.687 50.9066 72.1617 50.6386 72.2306 50.608C74.1984 49.7658 78.5015 49.291 80.0787 51.098C80.3338 51.4051 80.521 51.7625 80.6283 52.147C80.7355 52.5314 80.7603 52.9342 80.701 53.3289C80.6418 53.7236 80.4997 54.1014 80.2843 54.4374C80.0689 54.7733 79.7849 55.06 79.4509 55.2786C78.0727 56.2587 75.9901 56.0443 74.4664 55.5849C72.9427 55.1255 70.393 52.905 69.7345 52.3154C69.3287 52.6217 68.9688 52.9356 68.5324 53.2496C66.6106 54.7197 64.704 56.1821 62.8281 57.6828C62.1773 58.2035 61.5571 58.7471 60.9293 59.2907L61.8634 58.7701C63.8312 57.9278 68.1343 57.4454 69.7115 59.2524C69.9656 59.5606 70.1519 59.9187 70.2586 60.3036C70.3652 60.6885 70.3897 61.0914 70.3305 61.4864C70.2713 61.8813 70.1297 62.2594 69.9149 62.5961C69.7001 62.9328 69.4169 63.2205 69.0837 63.4407C67.7055 64.4207 65.6229 64.2063 64.0992 63.7393C62.5755 63.2722 60.2708 61.2738 59.5051 60.5771C58.8849 61.1513 58.2571 61.7256 57.6828 62.3075C57.2923 62.7133 56.9172 63.0732 56.5343 63.5096L55.4318 64.75C54.7656 65.5692 54.0689 66.4038 53.4334 67.2154C52.9893 67.7744 52.5758 68.318 52.1623 68.8693C52.7978 68.3333 54.0842 67.3379 54.199 67.2461C56.0137 66.1129 60.2019 64.949 62.0319 66.5416C62.3284 66.808 62.5656 67.1339 62.728 67.498C62.8903 67.8621 62.9742 68.2562 62.9742 68.6549C62.9742 69.0536 62.8903 69.4477 62.728 69.8118C62.5656 70.1759 62.3284 70.5018 62.0319 70.7682C60.8068 71.9473 58.7241 72.0698 57.1469 71.8248C55.4011 71.5491 52.2466 69.5278 51.8561 69.2368C51.167 70.148 50.5085 71.0285 49.896 71.8784C47.775 74.8109 46.1212 77.3376 44.988 79.114L44.8731 79.2977L43.4031 78.5857L43.6328 78.2335C44.8195 76.4571 46.55 73.9457 48.7551 71.0361C49.4519 70.1097 50.2099 69.1373 50.9985 68.1496C50.1784 67.2534 49.4114 66.31 48.7015 65.3242C47.0094 65.9904 43.5026 66.0133 43.0432 66.0133C42.9743 67.1465 42.913 68.2567 42.8671 69.2981C42.7139 72.912 42.7293 75.9288 42.7675 78.042V78.287L41.152 77.5214C41.152 75.4234 41.2362 72.5904 41.4506 69.2368C41.5195 68.0883 41.619 66.8556 41.7339 65.5922C41.2821 65.4774 37.6299 64.5432 36.2517 63.4407C35.0036 62.4376 33.6867 60.8221 33.7326 59.1223C33.7295 58.7235 33.8105 58.3286 33.9701 57.9631C34.1298 57.5977 34.3646 57.27 34.6593 57.0013C34.954 56.7327 35.3019 56.529 35.6805 56.4037C36.0591 56.2784 36.4598 56.2342 36.8566 56.274C39.2378 56.5802 41.2362 60.4239 41.6267 62.5295C41.6267 62.6597 41.7492 64.0609 41.7951 64.9031C41.8487 64.3901 41.887 63.8848 41.9483 63.3718C42.0478 62.3228 42.1856 61.2815 42.3311 60.1559C42.4153 59.6123 42.5072 59.0687 42.5914 58.5174C42.6757 57.9661 42.8211 57.3995 42.936 56.8329C43.2269 55.5313 43.5792 54.222 43.9696 52.9127C43.0508 52.8208 39.7967 52.438 38.4032 51.634C37.0097 50.83 35.463 49.4365 35.2563 47.7521C35.1923 47.358 35.212 46.955 35.3142 46.5691C35.4165 46.1832 35.5989 45.8232 35.8496 45.5126C36.1002 45.2019 36.4136 44.9476 36.7691 44.7662C37.1247 44.5848 37.5145 44.4803 37.9132 44.4597C40.3097 44.4061 42.8671 47.8975 43.5715 49.9266C43.6174 50.0491 43.962 51.5574 44.1381 52.392C44.3755 51.6263 44.6052 50.8224 44.9038 50.0337C45.6694 47.7367 46.5347 45.4933 47.3769 43.2193C47.6372 42.5225 47.8822 41.8257 48.1426 41.129C47.8133 41.129 43.9314 40.7232 42.3694 39.8273C40.9835 39.0617 39.4369 37.6299 39.2225 35.9454C39.1597 35.5515 39.1803 35.1489 39.283 34.7635C39.3857 34.3782 39.5682 34.0187 39.8187 33.7083C40.0691 33.3979 40.382 33.1436 40.737 32.9618C41.0919 32.78 41.4811 32.6748 41.8794 32.653C44.2836 32.5994 46.8409 36.0909 47.5453 38.1199C47.5989 38.273 48.089 40.4169 48.1885 40.9988C48.7398 39.4675 49.2834 37.9361 49.7198 36.4048C50.3674 34.3374 50.8789 32.2299 51.2512 30.0956C51.0981 30.0956 47.0476 29.7128 45.4474 28.794C44.0539 28.0283 42.5072 26.5965 42.3005 24.9121C42.2364 24.5184 42.2562 24.1157 42.3584 23.7303C42.4607 23.3448 42.6432 22.9853 42.894 22.6753C43.1448 22.3652 43.4582 22.1116 43.8138 21.931C44.1694 21.7504 44.5591 21.6469 44.9574 21.6273C47.3539 21.5661 49.9113 25.0575 50.6157 27.0866C50.6616 27.2167 51.0445 28.8706 51.2052 29.6669H51.3354C51.6517 27.5102 51.7747 25.3296 51.7029 23.151C51.7029 21.9489 51.5881 20.808 51.4732 19.6978C50.7076 19.6978 47.2314 19.6978 45.7001 19.0317C44.1687 18.3656 42.5378 17.1711 42.1397 15.5249C42.0335 15.1393 42.0099 14.7356 42.0705 14.3402C42.1311 13.9449 42.2745 13.5667 42.4914 13.2306C42.7082 12.8945 42.9936 12.608 43.3288 12.3898C43.6641 12.1717 44.0416 12.0267 44.4367 11.9645C46.8179 11.6353 49.7428 14.8358 50.6693 16.7653C50.7152 16.8725 51.1134 17.998 51.3814 18.825C51.3278 18.3196 51.2742 17.799 51.2052 17.2936C50.9679 15.4943 50.631 13.8634 50.3247 12.4163C50.141 11.597 49.9649 10.8849 49.7888 10.1729C49.0231 9.79003 46.0217 8.21274 44.9956 6.94173C43.9696 5.67071 43.0508 3.82544 43.4643 2.1869C43.5558 1.79997 43.7275 1.43655 43.9683 1.12016C44.2092 0.803774 44.5137 0.541468 44.8623 0.350212C45.2109 0.158957 45.5958 0.0430124 45.992 0.0098798C46.3882 -0.0232528 46.787 0.0271652 47.1625 0.157871Z" fill="white"/>
<path opacity="0.5" d="M90.5608 37.1328C88.6849 37.0563 84.9331 35.1344 84.9331 35.1344C84.9331 35.1344 86.9468 33.0441 87.0923 32.9293C88.7691 31.597 92.7966 29.9968 94.795 31.329C95.1216 31.5579 95.3963 31.8531 95.601 32.1955C95.8057 32.5378 95.9358 32.9195 95.9827 33.3156C96.0297 33.7117 95.9925 34.1132 95.8736 34.4939C95.7547 34.8747 95.5567 35.226 95.2926 35.5249C94.2207 36.8342 92.161 37.2017 90.5608 37.1328Z" fill="white"/>
</g>
<path d="M68.6546 84.1133C68.6546 84.1133 57.2691 56.6716 50.8987 57.866C44.5283 59.0605 61.8248 101.617 61.8248 101.617C61.8248 101.617 41.7948 63.8306 28.1352 63.8306C14.4757 63.8306 33.1427 105.59 50.4852 119.51C50.4852 119.51 23.166 90.0778 7.2324 96.4406C-8.70124 102.803 39.0614 132.619 39.0614 132.619C39.0614 132.619 11.2905 123.882 14.4986 130.651C17.7068 137.419 26.3359 138.598 26.3359 138.598L33.6404 140.191H73.4554L79.5808 137.81C79.5808 137.81 105.078 125.077 98.2478 119.908C91.418 114.74 76.3956 125.873 76.3956 125.873C76.3956 125.873 102.344 97.2369 97.3367 86.5022C92.3292 75.7674 70.0175 105.989 70.0175 105.989C70.0175 105.989 88.2328 67.4063 84.5653 60.6454C80.8977 53.8845 68.6546 84.1133 68.6546 84.1133Z" fill="#002366"/>
<path opacity="0.4" d="M68.6546 84.1133C68.6546 84.1133 57.2691 56.6716 50.8987 57.866C44.5283 59.0605 61.8248 101.617 61.8248 101.617C61.8248 101.617 41.7948 63.8306 28.1352 63.8306C14.4757 63.8306 33.1427 105.59 50.4852 119.51C50.4852 119.51 23.166 90.0778 7.2324 96.4406C-8.70124 102.803 39.0614 132.619 39.0614 132.619C39.0614 132.619 11.2905 123.882 14.4986 130.651C17.7068 137.419 26.3359 138.598 26.3359 138.598L38.2345 140.191H70.3927L79.5808 137.81C79.5808 137.81 105.078 125.077 98.2478 119.908C91.418 114.74 76.3956 125.873 76.3956 125.873C76.3956 125.873 102.344 97.2369 97.3367 86.5022C92.3292 75.7674 70.0175 105.989 70.0175 105.989C70.0175 105.989 88.2328 67.4063 84.5653 60.6454C80.8977 53.8845 68.6546 84.1133 68.6546 84.1133Z" fill="white"/>
<path d="M72.2992 85.5605C62.2842 115.154 62.2842 136.095 62.2842 136.095C62.2842 136.095 74.1215 136.554 86.4105 127.443" stroke="#263238" stroke-linecap="round" stroke-linejoin="round"/>
<path d="M67.3302 101.495C65.2637 92.6492 62.5222 83.9742 59.1299 75.5469" stroke="#263238" stroke-linecap="round" stroke-linejoin="round"/>
<path d="M37.6982 84.1914L63.1875 121.985C63.1875 121.985 80.4917 107.437 86.4103 99.2216" stroke="#263238" stroke-linecap="round" stroke-linejoin="round"/>
<path d="M62.7361 131.089C62.7361 131.089 35.8763 118.34 24.9502 111.059" stroke="#263238" stroke-linecap="round" stroke-linejoin="round"/>
<path d="M143.598 22.8457H138.062V253.535H143.598V22.8457Z" fill="#C2C2C2" stroke="#ABABAB" stroke-linecap="round" stroke-linejoin="round"/>
<path d="M44.0153 22.8457H38.4795V253.535H44.0153V22.8457Z" fill="#C2C2C2" stroke="#ABABAB" stroke-linecap="round" stroke-linejoin="round"/>
<path d="M93.8068 22.8457H88.271V253.535H93.8068V22.8457Z" fill="#C2C2C2" stroke="#ABABAB" stroke-linecap="round" stroke-linejoin="round"/>
<path d="M193.382 22.8457H187.847V253.535H193.382V22.8457Z" fill="#C2C2C2" stroke="#ABABAB" stroke-linecap="round" stroke-linejoin="round"/>
<path d="M191.721 30.0352H36.6953V40.5478H191.721V30.0352Z" fill="#C2C2C2" stroke="#ABABAB" stroke-linecap="round" stroke-linejoin="round"/>
<path d="M191.721 30.0352H91.9536V40.5478H191.721V30.0352Z" fill="#A6A6A6" stroke="#ABABAB" stroke-linecap="round" stroke-linejoin="round"/>
<path d="M191.721 135.891H36.6953V146.403H191.721V135.891Z" fill="#C2C2C2" stroke="#ABABAB" stroke-linecap="round" stroke-linejoin="round"/>
<path d="M191.721 135.891H91.9536V146.403H191.721V135.891Z" fill="#A6A6A6" stroke="#ABABAB" stroke-linecap="round" stroke-linejoin="round"/>
<path d="M191.721 241.736H36.6953V252.249H191.721V241.736Z" fill="#C2C2C2" stroke="#ABABAB" stroke-linecap="round" stroke-linejoin="round"/>
<path d="M191.721 241.736H91.9536V252.249H191.721V241.736Z" fill="#A6A6A6" stroke="#ABABAB" stroke-linecap="round" stroke-linejoin="round"/>
<path d="M91.9768 185.297H10.8462V253.449H91.9768V185.297Z" fill="#002366"/>
<path opacity="0.6" d="M91.9768 185.297H10.8462V253.449H91.9768V185.297Z" fill="white" stroke="#696969" stroke-linecap="round" stroke-linejoin="round"/>
<path d="M91.9768 185.297H10.8462V253.449H91.9768V185.297Z" stroke="#696969" stroke-linecap="round" stroke-linejoin="round"/>
<path d="M91.9769 185.297H65.0176V253.449H91.9769V185.297Z" fill="#002366"/>
<path opacity="0.39" d="M91.9769 185.297H65.0176V253.449H91.9769V185.297Z" fill="white" stroke="#696969" stroke-linecap="round" stroke-linejoin="round"/>
<path d="M91.9769 185.297H65.0176V253.449H91.9769V185.297Z" stroke="#696969" stroke-linecap="round" stroke-linejoin="round"/>
<path d="M78.7764 185.48V253.533" stroke="#696969" stroke-linecap="round" stroke-linejoin="round"/>
<path d="M96.073 117.252H14.9424V185.404H96.073V117.252Z" fill="#002366"/>
<path opacity="0.6" d="M96.073 117.252H14.9424V185.404H96.073V117.252Z" fill="white" stroke="#696969" stroke-linecap="round" stroke-linejoin="round"/>
<path d="M96.073 117.252H14.9424V185.404H96.073V117.252Z" stroke="#696969" stroke-linecap="round" stroke-linejoin="round"/>
<path d="M96.0731 117.252H69.1138V185.404H96.0731V117.252Z" fill="#002366"/>
<path opacity="0.39" d="M96.0736 117.252H69.1143V185.404H96.0736V117.252Z" fill="white" stroke="#696969" stroke-linecap="round" stroke-linejoin="round"/>
<path d="M96.0731 117.252H69.1138V185.404H96.0731V117.252Z" stroke="#696969" stroke-linecap="round" stroke-linejoin="round"/>
<path d="M82.873 117.436V185.488" stroke="#696969" stroke-linecap="round" stroke-linejoin="round"/>
<path d="M307.199 185.297H226.069V253.449H307.199V185.297Z" fill="#002366"/>
<path opacity="0.6" d="M307.199 185.297H226.069V253.449H307.199V185.297Z" fill="white" stroke="#919191" stroke-linecap="round" stroke-linejoin="round"/>
<path d="M307.199 185.297H226.069V253.449H307.199V185.297Z" stroke="#919191" stroke-linecap="round" stroke-linejoin="round"/>
<path d="M307.2 185.297H280.24V253.449H307.2V185.297Z" fill="#002366"/>
<path opacity="0.39" d="M307.2 185.297H280.24V253.449H307.2V185.297Z" fill="white" stroke="#919191" stroke-linecap="round" stroke-linejoin="round"/>
<path d="M307.2 185.297H280.24V253.449H307.2V185.297Z" stroke="#919191" stroke-linecap="round" stroke-linejoin="round"/>
<path d="M294 185.48V253.533" stroke="#919191" stroke-linecap="round" stroke-linejoin="round"/>
<path d="M307.199 117.074H226.069V185.227H307.199V117.074Z" fill="#002366"/>
<path opacity="0.6" d="M307.199 117.074H226.069V185.227H307.199V117.074Z" fill="white" stroke="#919191" stroke-linecap="round" stroke-linejoin="round"/>
<path d="M307.199 117.074H226.069V185.227H307.199V117.074Z" stroke="#919191" stroke-linecap="round" stroke-linejoin="round"/>
<path d="M307.2 117.074H280.24V185.227H307.2V117.074Z" fill="#002366"/>
<path opacity="0.39" d="M307.2 117.074H280.24V185.227H307.2V117.074Z" fill="white" stroke="#919191" stroke-linecap="round" stroke-linejoin="round"/>
<path d="M307.2 117.074H280.24V185.227H307.2V117.074Z" stroke="#919191" stroke-linecap="round" stroke-linejoin="round"/>
<path d="M294 117.26V185.313" stroke="#919191" stroke-linecap="round" stroke-linejoin="round"/>
<path d="M300.071 60.6445H232.96V117.021H300.071V60.6445Z" fill="#002366"/>
<path opacity="0.6" d="M300.071 60.6445H232.96V117.021H300.071V60.6445Z" fill="white" stroke="#919191" stroke-linecap="round" stroke-linejoin="round"/>
<path d="M300.071 60.6445H232.96V117.021H300.071V60.6445Z" stroke="#919191" stroke-linecap="round" stroke-linejoin="round"/>
<path d="M300.071 60.6445H277.775V117.021H300.071V60.6445Z" fill="#002366"/>
<path opacity="0.39" d="M300.071 60.6445H277.774V117.021H300.071V60.6445Z" fill="white" stroke="#919191" stroke-linecap="round" stroke-linejoin="round"/>
<path d="M300.071 60.6445H277.775V117.021H300.071V60.6445Z" stroke="#919191" stroke-linecap="round" stroke-linejoin="round"/>
<path d="M289.153 60.7988V117.091" stroke="#919191" stroke-linecap="round" stroke-linejoin="round"/>
<path d="M291.488 227.832H280.976V234.409H291.488V227.832Z" fill="white" stroke="#263238" stroke-linecap="round" stroke-linejoin="round"/>
<path d="M192.563 253.534C196.073 253.534 198.918 250.689 198.918 247.179C198.918 243.669 196.073 240.824 192.563 240.824C189.053 240.824 186.208 243.669 186.208 247.179C186.208 250.689 189.053 253.534 192.563 253.534Z" fill="#263238" stroke="#263238" stroke-linecap="round" stroke-linejoin="round"/>
<path d="M297.139 141.992H293.387V247.326H297.139V141.992Z" fill="#263238" stroke="#263238" stroke-linecap="round" stroke-linejoin="round"/>
<path d="M295.141 178.836L286.267 171.776C282.492 168.768 279.661 164.74 278.109 160.17C276.558 155.6 276.352 150.68 277.515 145.996C277.857 144.629 278.645 143.415 279.754 142.545C280.864 141.676 282.231 141.201 283.64 141.195H306.61C308.021 141.198 309.389 141.672 310.499 142.542C311.609 143.412 312.396 144.628 312.736 145.996C313.901 150.679 313.696 155.599 312.146 160.169C310.596 164.739 307.766 168.768 303.992 171.776L295.141 178.836ZM283.656 144.786C283.042 144.784 282.446 144.988 281.963 145.366C281.479 145.744 281.137 146.273 280.991 146.869C279.991 150.883 280.165 155.101 281.494 159.018C282.823 162.936 285.251 166.389 288.487 168.966L295.125 174.249L301.771 168.966C305.009 166.39 307.438 162.937 308.77 159.02C310.102 155.102 310.279 150.885 309.283 146.869C309.135 146.274 308.793 145.745 308.31 145.368C307.827 144.99 307.231 144.785 306.618 144.786H283.656Z" fill="#263238"/>
<path d="M273.112 231.123H156.937V244.645H273.112V231.123Z" fill="white"/>
<path opacity="0.28" d="M273.112 231.125H156.937V244.647H273.112V231.125Z" fill="black" stroke="#263238" stroke-linecap="round" stroke-linejoin="round"/>
<path d="M273.112 231.123H156.937V244.645H273.112V231.123Z" stroke="#263238" stroke-linecap="round" stroke-linejoin="round"/>
<path d="M169.953 231.123H156.937V244.645H169.953V231.123Z" stroke="#263238" stroke-linecap="round" stroke-linejoin="round"/>
<path d="M273.104 231.123H260.088V244.645H273.104V231.123Z" stroke="#263238" stroke-linecap="round" stroke-linejoin="round"/>
<path d="M221.529 231.123H208.512V244.645H221.529V231.123Z" stroke="#263238" stroke-linecap="round" stroke-linejoin="round"/>
<path d="M273.112 244.646H281.121L291.136 206.584H283.127L273.112 244.646Z" fill="white" stroke="#263238" stroke-linecap="round" stroke-linejoin="round"/>
<path d="M300.523 222.609H290.01V239.638H300.523V222.609Z" fill="white" stroke="#263238" stroke-linecap="round" stroke-linejoin="round"/>
<path d="M292.69 253.534C292.094 253.525 291.525 253.283 291.104 252.862C290.682 252.441 290.441 251.872 290.431 251.276V242.8C290.441 242.204 290.682 241.635 291.104 241.213C291.525 240.792 292.094 240.551 292.69 240.541C293.286 240.551 293.855 240.792 294.276 241.213C294.698 241.635 294.939 242.204 294.949 242.8V251.299C294.933 251.891 294.689 252.454 294.268 252.87C293.847 253.287 293.282 253.525 292.69 253.534Z" fill="#263238"/>
<path d="M298.058 253.534C297.462 253.525 296.893 253.283 296.471 252.862C296.05 252.441 295.809 251.872 295.799 251.276V242.8C295.809 242.204 296.05 241.635 296.471 241.213C296.893 240.792 297.462 240.551 298.058 240.541C298.66 240.541 299.239 240.778 299.668 241.2C300.098 241.623 300.345 242.197 300.355 242.8V251.299C300.339 251.897 300.09 252.466 299.661 252.883C299.231 253.301 298.656 253.535 298.058 253.534Z" fill="#263238"/>
<path d="M0.578613 253.535H317.421" stroke="#263238" stroke-linecap="round" stroke-linejoin="round"/>
<path d="M109.893 275.654C140.441 275.654 165.205 272.644 165.205 268.932C165.205 265.219 140.441 262.209 109.893 262.209C79.3451 262.209 54.5811 265.219 54.5811 268.932C54.5811 272.644 79.3451 275.654 109.893 275.654Z" fill="#002366"/>
<path opacity="0.5" d="M109.893 275.654C140.441 275.654 165.205 272.644 165.205 268.932C165.205 265.219 140.441 262.209 109.893 262.209C79.3451 262.209 54.5811 265.219 54.5811 268.932C54.5811 272.644 79.3451 275.654 109.893 275.654Z" fill="white"/>
<path d="M224.353 268.91C224.353 270.763 212.003 272.264 196.789 272.264C181.575 272.264 169.225 270.733 169.225 268.91C169.225 267.088 181.568 265.564 196.789 265.564C212.011 265.564 224.353 267.088 224.353 268.91Z" fill="#002366"/>
<path opacity="0.5" d="M224.353 268.91C224.353 270.763 212.003 272.264 196.789 272.264C181.575 272.264 169.225 270.733 169.225 268.91C169.225 267.088 181.568 265.564 196.789 265.564C212.011 265.564 224.353 267.088 224.353 268.91Z" fill="white"/>
<path d="M120.926 47.4696C120.926 47.4696 116.646 44.1083 111.738 45.7851C106.83 47.4619 103.109 55.6393 101.785 62.2854C100.46 68.9314 95.3684 73.9695 96.5934 81.7641C97.8185 89.5586 106.677 90.776 117.374 91.9245C128.07 93.073 133.874 91.7714 138.912 84.7425C143.95 77.7136 141.814 69.1611 138.836 61.5963C135.857 54.0314 130.896 47.0102 126.769 45.7086C122.642 44.4069 120.926 47.4696 120.926 47.4696Z" fill="#263238" stroke="#263238" stroke-linecap="round" stroke-linejoin="round"/>
<path d="M103.239 87.4453C103.961 87.7701 104.713 88.0264 105.483 88.211" stroke="white" stroke-linecap="round" stroke-linejoin="round"/>
<path d="M119.855 52.9141C118.11 56.8116 115.899 60.4831 113.27 63.8479C108.89 69.4755 99.2044 74.7893 98.5843 80.6926C98.4846 81.483 98.5539 82.2855 98.7875 83.0471C99.0211 83.8087 99.4138 84.512 99.9395 85.1106" stroke="white" stroke-linecap="round" stroke-linejoin="round"/>
<path d="M137.626 81.1426C137.309 81.8837 136.903 82.5831 136.416 83.2252" stroke="white" stroke-linecap="round" stroke-linejoin="round"/>
<path d="M133.943 66.3496C133.943 66.3496 138.866 72.0309 138.391 78.095" stroke="white" stroke-linecap="round" stroke-linejoin="round"/>
<path d="M118.92 49.7828C117.001 49.5875 115.064 49.8547 113.269 50.562C111.475 51.2694 109.876 52.3963 108.607 53.8485C108.431 54.0476 108.27 54.2466 108.117 54.4457" stroke="white" stroke-linecap="round" stroke-linejoin="round"/>
<path d="M90.6748 194.104L89.7177 208.835C89.7177 208.835 85.6443 228.597 84.358 236.744C83.0716 244.891 80.7134 257.279 80.2846 257.279C79.8558 257.279 72.827 261.529 70.5759 264.997C68.3248 268.466 71.1808 269.936 74.3047 268.826C77.4286 267.715 81.6705 264.576 83.0563 260.847C84.4422 257.118 85.1313 255.733 85.2232 255.128C85.3151 254.523 100.131 214.746 101.601 210.497C103.071 206.247 106.195 193.767 106.195 193.767L113.476 169.066C113.476 169.066 121.271 194.464 121.363 195.589C121.455 196.715 129.418 261.628 129.785 264.055C130.153 266.483 130.046 268.213 131.516 268.734C132.986 269.254 136.454 269.254 138.277 269.254C140.099 269.254 146.423 270.211 149.54 269.43C152.656 268.649 153.008 268.129 150.841 266.567C148.674 265.005 136.638 264.01 135.528 259.461C135.436 259.117 135.352 192.297 135.352 192.297C135.352 192.297 134.31 170.199 132.58 163.967H92.5353L90.6748 194.104Z" fill="white" stroke="#263238" stroke-linecap="round" stroke-linejoin="round"/>
<path d="M74.2973 268.809C77.4135 267.676 81.663 264.559 83.0489 260.831L83.3398 260.065C81.5711 261.948 78.7458 264.567 78.7458 264.567C78.5727 263.679 78.1864 262.846 77.6203 262.14C77.3733 261.867 77.0568 261.667 76.7048 261.561C76.3529 261.454 75.9785 261.445 75.6219 261.535L78.6846 258.166C76.3875 259.59 72.2529 262.5 70.6297 265.003C68.3097 268.457 71.158 269.934 74.2973 268.809Z" fill="#263238" stroke="#263238" stroke-linecap="round" stroke-linejoin="round"/>
<path d="M150.788 266.551C149.302 265.487 143.2 264.683 139.126 262.822C138.958 262.965 138.827 263.146 138.744 263.351C138.485 264.084 138.283 264.837 138.139 265.602L129.716 263.802V264.04C130.061 266.467 129.977 268.197 131.447 268.718C132.917 269.239 136.385 269.239 138.208 269.239C140.03 269.239 146.354 270.196 149.471 269.415C152.587 268.634 152.985 268.144 150.788 266.551Z" fill="#263238" stroke="#263238" stroke-linecap="round" stroke-linejoin="round"/>
<path d="M102.344 128.025C102.344 128.025 98.3697 129.855 93.5613 138.492C88.3011 147.918 89.2046 153.155 89.128 164.525C89.0515 175.895 88.8218 194.769 88.8218 194.769C88.8218 194.769 103.37 198.666 113.806 198.054C124.242 197.441 137.48 195.075 137.48 195.075C137.48 195.075 134.655 156.577 131.983 145.506C129.311 134.434 127.703 129.427 127.703 129.427C122.538 130.143 117.305 130.221 112.121 129.656C103.262 128.791 102.344 128.025 102.344 128.025Z" fill="#263238" stroke="#263238" stroke-linecap="round" stroke-linejoin="round"/>
<path d="M119.081 162.076C119.479 163.385 119.847 164.71 120.168 166.035" stroke="white" stroke-linecap="round" stroke-linejoin="round"/>
<path d="M109.855 140.406C112.939 146.098 115.586 152.015 117.772 158.109" stroke="white" stroke-linecap="round" stroke-linejoin="round"/>
<path d="M199.883 120.706C199.423 120.4 191.897 119.221 191.897 119.221L190.427 118.616C190.427 118.616 199.538 119.343 199.615 118.96C199.691 118.578 199.998 118.118 199.385 118.042C198.773 117.965 187.05 115.584 187.05 115.584C187.05 115.584 190.029 112.766 190.411 112.154C190.794 111.541 191.323 110.316 190.71 110.316C190.098 110.316 189.944 110.699 189.11 111.235C188.275 111.771 184.983 113.072 184.064 113.83C183.145 114.588 180.404 116.579 180.404 116.579L148.567 112.2C148.567 112.2 137.389 98.4174 134.961 95.4772C133.274 93.5151 131.353 91.7666 129.242 90.2707C126.899 89.237 126.945 90.9674 126.945 90.9674L131.838 112.713C131.838 112.713 144.494 120.254 145.275 120.254C146.056 120.254 180.251 121.388 180.251 121.388C180.251 121.388 182.548 122.46 183.987 123.371C185.427 124.282 194.607 127.199 194.607 127.199C194.607 127.199 195.22 126.893 194.531 126.357C193.842 125.821 189.416 123.685 189.416 123.685L198.604 125.675C198.604 125.675 199.14 125.292 198.91 124.91C198.681 124.527 190.488 121.395 190.488 121.395L199.676 121.855C199.676 121.855 200.335 121.012 199.883 120.706Z" fill="white" stroke="#263238" stroke-linecap="round" stroke-linejoin="round"/>
<path d="M146.646 109.834C143.346 105.768 136.753 97.6517 134.961 95.4772C133.274 93.5151 131.353 91.7666 129.242 90.2707C126.899 89.237 126.945 90.9674 126.945 90.9674L131.838 112.713C131.838 112.713 137.549 116.112 141.531 118.348L146.646 109.834Z" fill="white" stroke="#263238" stroke-linecap="round" stroke-linejoin="round"/>
<path d="M112.811 88.4113C112.811 88.4113 106.165 88.7176 102.091 93.2274C98.0178 97.7372 98.5001 107.66 100.185 113.617C101.869 119.574 104.013 122.859 103.546 124.926C103.079 126.993 101.41 127.675 102.321 129.581C103.232 131.488 108.507 133.555 117.826 133.249C127.144 132.943 128.905 130.952 128.982 129.206C129.058 127.461 128.369 125.998 128.599 124.926C128.828 123.854 135.551 117.897 135.551 111.328C135.551 104.758 132.649 102.469 131.96 97.7295C131.271 92.99 131.501 92.3086 128.675 90.2412C125.85 88.1739 116.555 87.1096 112.811 88.4113Z" fill="white" stroke="#263238" stroke-linecap="round" stroke-linejoin="round"/>
<path d="M109.794 111.182C107.573 113.04 105.107 114.586 102.466 115.776" stroke="#263238" stroke-linecap="round" stroke-linejoin="round"/>
<path d="M110.529 111.947C110.529 111.947 108.883 117.261 104.848 120.194" stroke="#263238" stroke-linecap="round" stroke-linejoin="round"/>
<path d="M127.021 93.2188L127.787 100.554L124.571 96.8098L127.021 93.2188Z" fill="white" stroke="#263238" stroke-linecap="round" stroke-linejoin="round"/>
<path d="M122.741 101.167L127.021 93.2193L123.124 89.0234L122.741 101.167Z" fill="white" stroke="#263238" stroke-linecap="round" stroke-linejoin="round"/>
<path d="M114.495 75.4238C115.162 78.072 115.494 80.7936 115.482 83.5246C115.46 85.293 115.281 87.0558 114.946 88.7925L122.741 101.166L124.954 89.6806L126.408 81.733C126.408 81.733 117.55 81.2276 114.495 75.4238Z" fill="white" stroke="#263238" stroke-linecap="round" stroke-linejoin="round"/>
<path d="M122.282 94.5195L122.741 101.166L120.452 97.5746L122.282 94.5195Z" fill="white" stroke="#263238" stroke-linecap="round" stroke-linejoin="round"/>
<path d="M112.351 88.4856L119.457 101.242L122.282 94.5191L114.725 84.1289L112.351 88.4856Z" fill="white" stroke="#263238" stroke-linecap="round" stroke-linejoin="round"/>
<path d="M236.834 94.4355H172.357V147.343H236.834V94.4355Z" fill="#002366"/>
<path opacity="0.2" d="M236.834 94.4355H172.357V147.343H236.834V94.4355Z" fill="black"/>
<path d="M236.834 94.4355H172.357V147.343H236.834V94.4355Z" stroke="#263238" stroke-linecap="round" stroke-linejoin="round"/>
<path d="M223.182 94.4355H158.705V147.343H223.182V94.4355Z" fill="#002366" stroke="#263238" stroke-linecap="round" stroke-linejoin="round"/>
<path d="M247.454 165.153C245.387 161.876 236.834 147.344 236.834 147.344H223.19L230.211 165.153H247.454Z" fill="#002366"/>
<path opacity="0.2" d="M247.454 165.153C245.387 161.876 236.834 147.344 236.834 147.344H223.19L230.211 165.153H247.454Z" fill="black"/>
<path d="M247.454 165.153C245.387 161.876 236.834 147.344 236.834 147.344H223.19L230.211 165.153H247.454Z" stroke="#263238" stroke-linecap="round" stroke-linejoin="round"/>
<path d="M148.047 165.153C150.114 161.876 158.659 147.344 158.659 147.344H172.311L165.29 165.153H148.047Z" fill="#002366" stroke="#263238" stroke-linecap="round" stroke-linejoin="round"/>
<path d="M158.659 147.344L152.725 165.153H220.066L223.19 147.344H158.659Z" fill="#002366" stroke="#263238" stroke-linecap="round" stroke-linejoin="round"/>
<path d="M245.134 113.578V131.296" stroke="#263238" stroke-linecap="round" stroke-linejoin="round"/>
<path d="M248.488 121.242V135.606" stroke="#263238" stroke-linecap="round" stroke-linejoin="round"/>
<path d="M151.775 131.295V142.305" stroke="#263238" stroke-linecap="round" stroke-linejoin="round"/>
<path d="M148.904 137.52V146.133" stroke="#263238" stroke-linecap="round" stroke-linejoin="round"/>
<path d="M101.731 107.43C104.016 110.018 106.668 112.257 109.602 114.076C114.196 116.824 131.041 126.372 132.366 126.908C133.69 127.444 173.919 120.875 173.919 120.875C173.919 120.875 176.216 121.947 177.663 122.858C179.11 123.769 188.283 126.686 188.283 126.686C188.283 126.686 188.895 126.38 188.206 125.852C187.517 125.323 183.091 123.172 183.091 123.172L192.279 125.163C192.279 125.163 192.815 124.78 192.586 124.397C192.356 124.014 184.163 120.882 184.163 120.882L193.351 121.342C193.351 121.342 194.04 120.5 193.581 120.193C193.122 119.887 183.711 117.743 183.711 117.743C183.711 117.743 193.719 116.901 193.795 116.518C193.872 116.135 194.178 115.684 193.566 115.607C192.953 115.53 180.427 114.305 180.427 114.305C180.427 114.305 183.711 112.246 184.094 111.633C184.477 111.021 185.013 109.795 184.401 109.795C183.788 109.795 183.635 110.178 182.8 110.714C181.966 111.25 178.673 112.552 177.755 113.31C176.836 114.068 174.087 116.066 174.087 116.066L137.273 116.143L114.418 98.1113" fill="white"/>
<path d="M101.731 107.43C104.016 110.018 106.668 112.257 109.602 114.076C114.196 116.824 131.041 126.372 132.366 126.908C133.69 127.444 173.919 120.875 173.919 120.875C173.919 120.875 176.216 121.947 177.663 122.858C179.11 123.769 188.283 126.686 188.283 126.686C188.283 126.686 188.895 126.38 188.206 125.852C187.517 125.323 183.091 123.172 183.091 123.172L192.279 125.163C192.279 125.163 192.815 124.78 192.586 124.397C192.356 124.014 184.163 120.882 184.163 120.882L193.351 121.342C193.351 121.342 194.04 120.5 193.581 120.193C193.122 119.887 183.711 117.743 183.711 117.743C183.711 117.743 193.719 116.901 193.795 116.518C193.872 116.135 194.178 115.684 193.566 115.607C192.953 115.53 180.427 114.305 180.427 114.305C180.427 114.305 183.711 112.246 184.094 111.633C184.477 111.021 185.013 109.795 184.401 109.795C183.788 109.795 183.635 110.178 182.8 110.714C181.966 111.25 178.673 112.552 177.755 113.31C176.836 114.068 174.087 116.066 174.087 116.066L137.273 116.143L114.418 98.1113" stroke="#263238" stroke-linecap="round" stroke-linejoin="round"/>
<path d="M193.551 115.606C192.946 115.53 180.412 114.305 180.412 114.305C180.412 114.305 183.696 112.245 184.079 111.633C184.462 111.02 184.998 109.795 184.386 109.795C183.773 109.795 183.62 110.178 182.785 110.714C181.951 111.25 178.658 112.551 177.74 113.309C176.821 114.067 174.072 116.066 174.072 116.066L137.258 116.142L133.177 112.904C131.646 115.591 128.782 120.629 126.922 123.952C129.785 125.545 131.952 126.732 132.389 126.908C133.69 127.444 173.942 120.874 173.942 120.874C173.942 120.874 176.239 121.946 177.686 122.857C179.133 123.768 188.306 126.686 188.306 126.686C188.306 126.686 188.918 126.379 188.229 125.851C187.54 125.323 183.115 123.171 183.115 123.171L192.303 125.162C192.303 125.162 192.839 124.779 192.609 124.396C192.379 124.013 184.186 120.882 184.186 120.882L193.375 121.341C193.375 121.341 194.064 120.499 193.604 120.193C193.145 119.886 183.712 117.743 183.712 117.743C183.712 117.743 193.719 116.9 193.796 116.518C193.872 116.135 194.163 115.683 193.551 115.606Z" fill="white" stroke="#263238" stroke-linecap="round" stroke-linejoin="round"/>
<path d="M131.906 69.0082C132.037 68.8498 132.209 68.7312 132.404 68.666C132.598 68.6009 132.807 68.5917 133.007 68.6396C133.206 68.6875 133.388 68.7905 133.532 68.9369C133.676 69.0833 133.776 69.2672 133.82 69.4676C133.948 70.2982 133.906 71.1461 133.695 71.9596C133.484 72.7732 133.11 73.5353 132.595 74.1994C131.753 75.0417 130.987 75.2714 130.987 74.1994C131.2 72.4538 131.507 70.7208 131.906 69.0082Z" fill="white" stroke="#263238" stroke-linecap="round" stroke-linejoin="round"/>
<path d="M122.504 55.625C122.235 59.3513 120.641 62.858 118.009 65.5098C115.558 67.9206 112.785 69.9818 109.771 71.6352C109.771 71.6352 110.215 74.0318 111.118 74.7821C112.022 75.5325 113.813 75.387 113.813 75.387C114.855 78.2349 116.549 80.7995 118.76 82.8753C122.351 86.1677 126.546 85.869 128.943 80.9305C131.339 75.9919 132.542 71.038 132.243 68.1897L131.944 65.3414C131.944 65.3414 124.15 61.0153 122.504 55.625Z" fill="white" stroke="#263238" stroke-linecap="round" stroke-linejoin="round"/>
<path d="M122.052 70.4326C122.432 70.4326 122.741 69.8841 122.741 69.2075C122.741 68.5309 122.432 67.9824 122.052 67.9824C121.671 67.9824 121.363 68.5309 121.363 69.2075C121.363 69.8841 121.671 70.4326 122.052 70.4326Z" fill="#263238"/>
<path d="M125.796 80.2099C126.177 80.2099 126.485 79.6614 126.485 78.9848C126.485 78.3082 126.177 77.7598 125.796 77.7598C125.415 77.7598 125.107 78.3082 125.107 78.9848C125.107 79.6614 125.415 80.2099 125.796 80.2099Z" fill="#263238"/>
<path d="M128.698 70.4326C129.078 70.4326 129.387 69.8841 129.387 69.2075C129.387 68.5309 129.078 67.9824 128.698 67.9824C128.317 67.9824 128.009 68.5309 128.009 69.2075C128.009 69.8841 128.317 70.4326 128.698 70.4326Z" fill="#263238"/>
<path d="M127.32 67.9043C127.057 68.8215 126.979 69.7819 127.09 70.7296C127.32 72.0313 128.392 74.2441 127.473 74.6269C127.054 74.8182 126.59 74.8907 126.132 74.8367C125.675 74.7827 125.241 74.6042 124.877 74.3206" stroke="#263238" stroke-linecap="round" stroke-linejoin="round"/>
<path d="M120.061 66.9948C120.061 66.9948 120.429 64.6518 123.499 64.9198" stroke="#263238" stroke-linecap="round" stroke-linejoin="round"/>
<path d="M128.285 65.64C128.285 65.64 131.148 63.343 132.075 67.5466" stroke="#263238" stroke-linecap="round" stroke-linejoin="round"/>
</svg>
