<?xml version="1.0" encoding="UTF-8" ?>
<!DOCTYPE svg PUBLIC "-//W3C//DTD SVG 1.1//EN" "http://www.w3.org/Graphics/SVG/1.1/DTD/svg11.dtd">
<svg width="1024pt" height="984pt" viewBox="0 0 1024 984" version="1.1" xmlns="http://www.w3.org/2000/svg">
<g id="#0a0a0aff">
</g>
<g id="#fdfcfbff">
</g>
<g id="#88858aff">
<path fill="#88858a" opacity="1.00" d=" M 768.65 167.63 C 773.02 162.64 780.65 165.54 785.13 168.90 C 792.91 175.41 799.04 183.63 806.52 190.46 C 812.61 196.08 818.09 202.29 823.15 208.84 C 836.81 222.76 847.97 238.77 859.75 254.25 C 865.29 261.32 868.04 270.15 874.06 276.91 C 882.39 289.72 888.68 303.73 895.22 317.51 C 898.06 329.10 908.94 338.54 906.35 351.31 C 900.61 358.91 892.96 364.87 884.95 369.92 C 873.53 376.99 863.49 386.03 852.13 393.18 C 843.16 398.79 835.09 405.75 825.44 410.27 C 803.85 421.32 783.09 434.01 760.83 443.72 C 754.57 446.35 747.63 447.31 741.69 450.68 C 731.86 457.02 719.69 457.52 709.25 462.41 C 699.88 466.32 689.70 467.44 679.77 469.07 C 676.65 452.23 679.92 435.01 680.50 418.08 C 682.32 404.21 681.80 389.79 686.67 376.49 C 687.88 372.77 688.50 368.89 689.06 365.04 C 691.26 346.59 698.42 329.26 702.50 311.22 C 704.84 299.11 710.88 288.13 713.40 276.07 C 714.57 271.44 717.09 267.32 718.80 262.90 C 722.77 254.56 724.70 245.36 729.30 237.31 C 733.59 229.49 736.28 220.85 741.26 213.39 C 746.17 203.97 752.08 195.13 756.81 185.61 C 760.30 179.34 763.90 173.03 768.65 167.63 Z" />
<path fill="#88858a" opacity="1.00" d=" M 908.24 389.24 C 911.24 386.41 915.22 385.35 919.19 384.64 C 919.97 391.83 924.24 397.85 926.06 404.70 C 927.38 415.01 929.48 425.19 931.71 435.34 C 935.75 470.30 939.82 505.66 935.54 540.83 C 933.02 556.33 933.84 572.30 929.30 587.47 C 926.71 595.80 928.57 605.29 923.96 612.96 C 922.65 615.34 921.17 617.71 920.75 620.45 C 919.17 630.06 917.92 639.97 913.79 648.91 C 908.53 660.15 906.01 672.61 899.33 683.21 C 891.73 700.41 883.62 717.53 873.31 733.32 C 870.80 737.27 868.12 741.14 866.37 745.52 C 863.61 751.37 859.22 756.24 855.73 761.64 C 850.88 770.28 843.40 776.97 838.64 785.71 C 828.75 797.11 818.86 808.53 808.63 819.64 C 799.40 828.07 789.96 836.28 780.87 844.87 C 776.31 848.35 770.48 853.40 764.41 850.58 C 760.23 847.42 758.98 841.97 756.65 837.52 C 751.87 825.81 744.87 815.18 740.60 803.24 C 733.89 793.83 734.38 781.56 728.59 771.74 C 724.15 763.99 723.07 754.98 719.02 747.09 C 714.48 738.40 713.06 728.64 709.40 719.63 C 704.15 705.78 701.71 691.10 697.34 676.99 C 694.78 665.69 691.15 654.58 690.03 642.99 C 689.33 636.23 687.90 629.60 685.75 623.16 C 681.61 610.00 682.86 595.94 681.06 582.43 C 678.25 566.15 679.39 549.57 678.19 533.16 C 682.66 531.42 687.00 529.37 691.39 527.42 C 701.31 523.13 712.07 520.89 721.48 515.39 C 728.67 511.05 737.73 510.68 744.46 505.49 C 751.59 500.21 760.02 497.17 767.85 493.13 C 780.03 487.42 791.81 480.81 802.55 472.69 C 813.34 467.98 822.32 460.33 832.06 453.89 C 849.31 440.97 866.18 427.51 882.60 413.55 C 892.08 406.43 898.49 396.05 908.24 389.24 Z" />
</g>
<g id="#a1258eff">
<path fill="#a1258e" opacity="1.00" d=" M 542.43 118.65 C 578.99 117.65 616.10 116.03 652.23 123.11 C 669.01 124.18 684.32 131.84 700.87 134.14 C 709.28 135.07 716.90 138.89 724.99 141.06 C 731.01 142.86 738.00 144.74 740.90 151.00 C 742.07 152.45 741.20 154.05 740.72 155.49 C 736.43 165.91 728.29 174.02 722.72 183.69 C 715.36 197.49 704.89 209.15 695.53 221.56 C 691.45 226.75 686.45 231.10 682.28 236.20 C 676.23 245.31 668.37 252.99 660.52 260.53 C 654.47 266.51 649.85 273.80 643.45 279.44 C 639.92 282.54 636.16 285.47 633.46 289.36 C 628.71 296.28 621.28 300.57 615.50 306.49 C 608.79 313.20 602.63 320.63 594.23 325.36 C 585.21 333.27 576.40 341.50 567.04 349.03 C 553.58 358.44 540.95 368.94 527.98 379.00 C 518.71 384.35 505.92 383.31 497.77 376.28 C 477.88 360.76 455.99 348.12 435.52 333.45 C 429.96 328.72 423.25 325.69 417.23 321.64 C 410.28 317.39 404.43 311.53 397.16 307.78 C 381.73 300.57 365.56 295.13 350.23 287.73 C 336.14 282.31 322.90 274.90 308.41 270.48 C 297.56 265.31 286.40 260.92 275.15 256.73 C 270.09 255.27 269.30 248.28 272.93 244.96 C 279.59 238.23 284.97 230.35 291.63 223.64 C 301.80 215.75 311.25 206.79 322.53 200.42 C 331.76 194.56 339.86 187.02 349.30 181.48 C 362.91 175.06 376.37 168.26 389.10 160.19 C 395.33 156.28 402.74 155.06 409.46 152.29 C 431.90 140.33 456.87 134.39 481.65 129.48 C 491.69 127.28 501.55 124.01 511.94 123.80 C 522.34 123.49 532.15 119.78 542.43 118.65 Z" />
<path fill="#a1258e" opacity="1.00" d=" M 236.73 283.49 C 246.83 280.01 256.96 285.14 266.03 289.18 C 274.71 293.89 284.20 296.75 293.21 300.72 C 310.62 309.76 328.18 318.62 344.50 329.57 C 351.93 335.73 361.30 338.95 368.51 345.44 C 392.56 359.12 412.83 378.33 433.51 396.48 C 439.86 401.37 446.27 406.42 451.01 412.96 C 452.43 415.14 454.18 418.62 451.84 420.78 C 442.60 428.81 430.58 432.22 420.01 438.02 C 413.08 441.99 405.06 443.29 397.87 446.66 C 390.31 449.11 383.91 454.05 376.30 456.38 C 369.12 458.66 362.03 461.20 354.93 463.71 C 325.84 470.36 297.22 479.10 267.71 483.82 C 240.80 491.42 212.51 486.95 185.06 490.22 C 171.10 492.05 157.21 489.42 143.48 487.26 C 143.97 473.19 148.73 459.87 151.40 446.18 C 154.62 432.33 161.00 419.53 165.18 406.00 C 167.37 401.08 170.27 396.50 172.33 391.51 C 178.64 375.40 188.98 361.24 195.28 345.12 C 202.33 327.73 212.38 311.67 223.66 296.74 C 227.23 291.77 230.24 285.17 236.73 283.49 Z" />
</g>
<g id="#fbc125ff">
<path fill="#fbc125" opacity="1.00" d=" M 143.75 522.66 C 155.53 516.65 169.29 519.34 181.96 519.22 C 207.05 522.07 232.75 522.17 257.02 529.93 C 278.21 533.26 299.50 536.52 320.05 542.91 C 339.34 548.39 358.91 553.36 377.21 561.71 C 384.22 564.67 391.89 565.46 399.03 568.03 C 405.72 569.92 411.55 573.97 418.34 575.62 C 431.57 579.45 444.23 584.92 456.92 590.19 C 461.26 592.84 466.77 594.94 469.27 599.68 C 472.58 618.14 468.19 636.70 465.96 655.00 C 461.75 698.02 462.06 741.40 465.47 784.47 C 468.89 815.69 475.47 846.42 481.46 877.22 C 482.92 882.03 482.29 888.87 477.00 891.07 C 471.45 894.70 465.00 890.78 459.36 889.60 C 445.52 886.26 432.46 880.50 419.50 874.76 C 400.98 868.16 382.43 860.49 366.79 848.32 C 355.41 840.07 343.47 832.58 331.21 825.74 C 322.88 821.86 316.76 814.85 309.55 809.39 C 302.89 803.22 294.41 799.45 287.92 793.06 C 277.29 782.67 266.95 771.94 257.85 760.17 C 252.58 753.76 246.44 748.07 242.01 741.00 C 236.43 732.32 228.44 725.36 223.77 716.09 C 220.60 710.14 215.70 705.35 212.53 699.42 C 209.00 691.60 204.37 684.43 199.37 677.50 C 193.41 669.69 190.46 660.31 186.25 651.59 C 179.96 641.86 176.37 630.84 171.53 620.40 C 164.06 604.89 160.27 587.97 154.00 571.97 C 150.60 563.82 149.18 555.05 146.49 546.68 C 143.75 538.96 144.12 530.71 143.75 522.66 Z" />
<path fill="#fbc125" opacity="1.00" d=" M 524.32 631.33 C 530.53 630.56 536.05 634.85 540.84 638.15 C 547.19 642.40 551.67 649.28 559.03 652.04 C 569.32 655.88 577.16 663.74 586.03 669.90 C 592.79 674.41 597.56 681.16 604.05 686.01 C 619.96 700.72 635.08 716.25 650.73 731.24 C 657.95 740.65 667.89 747.52 674.92 757.08 C 682.36 766.74 690.09 776.27 696.24 786.84 C 699.48 791.90 702.28 797.25 705.96 802.01 C 712.19 809.36 715.91 818.41 722.39 825.58 C 730.57 834.72 734.15 846.73 741.65 856.33 C 744.53 861.20 747.90 867.43 745.05 873.03 C 741.97 880.12 733.95 882.31 727.56 885.37 C 706.41 891.12 685.34 897.66 663.53 900.47 C 653.87 901.53 644.72 905.39 634.96 905.83 C 616.02 907.27 597.05 908.97 578.04 908.79 C 560.05 907.66 542.09 906.12 524.15 904.46 C 515.48 903.89 506.87 898.62 503.69 890.32 C 499.39 879.14 499.28 866.93 498.67 855.14 C 496.57 821.18 496.97 787.14 496.36 753.14 C 498.69 734.51 498.90 715.66 502.20 697.14 C 504.41 681.52 509.56 666.51 512.14 650.96 C 513.04 646.23 515.52 642.01 517.95 637.92 C 519.57 635.37 521.18 632.26 524.32 631.33 Z" />
</g>
</svg>
