<svg width="44" height="48" viewBox="0 0 44 48" fill="none" xmlns="http://www.w3.org/2000/svg">
<path fill-rule="evenodd" clip-rule="evenodd" d="M4 0C2.89543 0 2 0.895431 2 2V46C2 47.1046 2.89543 48 4 48H40C41.1046 48 42 47.1046 42 46V8L34 0H4Z" fill="#E4E7EC"/>
<path fill-rule="evenodd" clip-rule="evenodd" d="M34 0V8H42L34 0Z" fill="#98A2B3"/>
<rect y="20" width="44" height="20" rx="2" fill="#CC400C"/>
<path d="M7.32715 35.8182V24.1818H11.6908C12.5847 24.1818 13.3347 24.3485 13.9408 24.6818C14.5506 25.0152 15.0109 25.4735 15.3215 26.0568C15.6359 26.6364 15.7931 27.2955 15.7931 28.0341C15.7931 28.7803 15.6359 29.4432 15.3215 30.0227C15.0071 30.6023 14.5431 31.0587 13.9294 31.3921C13.3158 31.7216 12.5601 31.8864 11.6624 31.8864H8.77033V30.1534H11.3783C11.901 30.1534 12.329 30.0625 12.6624 29.8807C12.9957 29.6989 13.2419 29.4489 13.401 29.1307C13.5639 28.8125 13.6453 28.447 13.6453 28.0341C13.6453 27.6212 13.5639 27.2576 13.401 26.9432C13.2419 26.6288 12.9938 26.3845 12.6567 26.2102C12.3234 26.0322 11.8934 25.9432 11.3669 25.9432H9.4351V35.8182H7.32715Z" fill="white"/>
<path d="M21.5672 35.8182H17.624V24.1818H21.6468C22.8021 24.1818 23.7945 24.4148 24.624 24.8807C25.4574 25.3428 26.0975 26.0076 26.5445 26.875C26.9914 27.7424 27.2149 28.7803 27.2149 29.9886C27.2149 31.2008 26.9896 32.2424 26.5388 33.1136C26.0918 33.9849 25.446 34.6534 24.6013 35.1193C23.7604 35.5852 22.749 35.8182 21.5672 35.8182ZM19.732 33.9943H21.4649C22.2755 33.9943 22.9517 33.8466 23.4933 33.5511C24.035 33.2519 24.4422 32.8068 24.7149 32.2159C24.9877 31.6212 25.124 30.8788 25.124 29.9886C25.124 29.0985 24.9877 28.3599 24.7149 27.7727C24.4422 27.1818 24.0388 26.7405 23.5047 26.4489C22.9744 26.1534 22.3153 26.0057 21.5274 26.0057H19.732V33.9943Z" fill="white"/>
<path d="M29.2178 35.8182V24.1818H36.6723V25.9489H31.3257V29.108H36.161V30.875H31.3257V35.8182H29.2178Z" fill="white"/>
</svg>
