<svg width="62" height="62" viewBox="0 0 62 62" fill="none" xmlns="http://www.w3.org/2000/svg">
<rect x="6" y="6" width="50" height="50" rx="25" fill="#4679F9" fill-opacity="0.08"/>
<rect x="3" y="3" width="56" height="56" rx="28" stroke="#4679F9" stroke-opacity="0.04" stroke-width="6"/>
<path d="M22 25C22 24.2044 22.3161 23.4413 22.8787 22.8787C23.4413 22.3161 24.2044 22 25 22C25.7956 22 26.5587 22.3161 27.1213 22.8787C27.6839 23.4413 28 24.2044 28 25C28 25.7956 27.6839 26.5587 27.1213 27.1213C26.5587 27.6839 25.7956 28 25 28C24.2044 28 23.4413 27.6839 22.8787 27.1213C22.3161 26.5587 22 25.7956 22 25ZM25 19C23.4087 19 21.8826 19.6321 20.7574 20.7574C19.6321 21.8826 19 23.4087 19 25C19 26.5913 19.6321 28.1174 20.7574 29.2426C21.8826 30.3679 23.4087 31 25 31C26.5913 31 28.1174 30.3679 29.2426 29.2426C30.3679 28.1174 31 26.5913 31 25C31 23.4087 30.3679 21.8826 29.2426 20.7574C28.1174 19.6321 26.5913 19 25 19ZM37 26.5C37 26.1022 37.158 25.7206 37.4393 25.4393C37.7206 25.158 38.1022 25 38.5 25C38.8978 25 39.2794 25.158 39.5607 25.4393C39.842 25.7206 40 26.1022 40 26.5C40 26.8978 39.842 27.2794 39.5607 27.5607C39.2794 27.842 38.8978 28 38.5 28C38.1022 28 37.7206 27.842 37.4393 27.5607C37.158 27.2794 37 26.8978 37 26.5ZM38.5 22C37.3065 22 36.1619 22.4741 35.318 23.318C34.4741 24.1619 34 25.3065 34 26.5C34 27.6935 34.4741 28.8381 35.318 29.682C36.1619 30.5259 37.3065 31 38.5 31C39.6935 31 40.8381 30.5259 41.682 29.682C42.5259 28.8381 43 27.6935 43 26.5C43 25.3065 42.5259 24.1619 41.682 23.318C40.8381 22.4741 39.6935 22 38.5 22ZM16 37.75C16 35.68 17.68 34 19.75 34H30.25C32.32 34 34 35.68 34 37.75V37.894C33.998 38.0034 33.99 38.1125 33.976 38.221C33.9482 38.4837 33.9031 38.7443 33.841 39.001C33.6384 39.8307 33.2767 40.6131 32.776 41.305C31.504 43.054 29.134 44.5 25 44.5C20.866 44.5 18.496 43.054 17.224 41.305C16.5686 40.3956 16.1556 39.3342 16.024 38.221L16 37.891V37.75ZM19 37.828L19.006 37.909C19.014 37.995 19.037 38.124 19.075 38.296C19.156 38.635 19.321 39.088 19.651 39.541C20.251 40.369 21.631 41.5 25 41.5C28.369 41.5 29.746 40.369 30.349 39.541C30.7096 39.0366 30.9339 38.4476 31 37.831V37.75C31 37.5511 30.921 37.3603 30.7803 37.2197C30.6397 37.079 30.4489 37 30.25 37H19.75C19.5511 37 19.3603 37.079 19.2197 37.2197C19.079 37.3603 19 37.5511 19 37.75V37.828ZM38.497 43C37.435 42.996 36.502 42.896 35.698 42.7C36.2445 41.833 36.6334 40.8763 36.847 39.874C37.311 39.954 37.861 39.996 38.497 40C41.167 40 42.181 39.184 42.577 38.689C42.794 38.4131 42.9384 38.0871 42.997 37.741V37.726C42.9908 37.5313 42.909 37.3466 42.769 37.2111C42.629 37.0756 42.4418 36.9999 42.247 37H36.958C36.8394 35.9265 36.4638 34.8975 35.863 34H42.25C44.32 34 46 35.68 46 37.75V37.801C45.9973 37.8943 45.9903 37.9874 45.979 38.08C45.8603 38.988 45.4951 39.846 44.923 40.561C43.816 41.941 41.833 43 38.5 43" fill="#4679F9"/>
</svg>
