<svg width="62" height="62" viewBox="0 0 62 62" fill="none" xmlns="http://www.w3.org/2000/svg">
<rect x="6" y="6" width="50" height="50" rx="25" fill="#00FF40" fill-opacity="0.08"/>
<rect x="3" y="3" width="56" height="56" rx="28" stroke="#00FF40" stroke-opacity="0.04" stroke-width="6"/>
<path d="M31 35.875C28.315 35.875 26.125 33.685 26.125 31C26.125 28.315 28.315 26.125 31 26.125C33.685 26.125 35.875 28.315 35.875 31C35.875 33.685 33.685 35.875 31 35.875ZM31 28.375C29.56 28.375 28.375 29.56 28.375 31C28.375 32.44 29.56 33.625 31 33.625C32.44 33.625 33.625 32.44 33.625 31C33.625 29.56 32.44 28.375 31 28.375ZM40.75 35.875C40.135 35.875 39.625 35.365 39.625 34.75V27.25C39.625 26.635 40.135 26.125 40.75 26.125C41.365 26.125 41.875 26.635 41.875 27.25V34.75C41.875 35.365 41.365 35.875 40.75 35.875ZM20.5 47.125C18.01 47.125 15.67 45.805 14.41 43.66C13.735 42.58 13.375 41.305 13.375 40C13.375 36.07 16.57 32.875 20.5 32.875C24.43 32.875 27.625 36.07 27.625 40C27.625 41.305 27.265 42.58 26.59 43.675C25.33 45.805 22.99 47.125 20.5 47.125ZM20.5 35.125C17.815 35.125 15.625 37.315 15.625 40C15.625 40.885 15.865 41.755 16.33 42.505C17.2 43.975 18.805 44.875 20.5 44.875C21.7922 44.8726 23.0308 44.3582 23.9445 43.4445C24.8582 42.5308 25.3726 41.2922 25.375 40C25.375 37.315 23.185 35.125 20.5 35.125Z" fill="#00FF40"/>
<path d="M19.6435 42.6115C19.3585 42.6115 19.0735 42.5065 18.8485 42.2815L17.3635 40.7965C17.1547 40.5847 17.0376 40.2991 17.0376 40.0015C17.0376 39.704 17.1547 39.4184 17.3635 39.2065C17.7985 38.7715 18.5185 38.7715 18.9535 39.2065L19.6735 39.9265L22.0735 37.7065C22.5235 37.2865 23.2435 37.3165 23.6635 37.7665C24.0835 38.2165 24.0535 38.9365 23.6035 39.3565L20.4085 42.3115C20.1835 42.5065 19.9135 42.6115 19.6435 42.6115Z" fill="#00FF40"/>
<path d="M38.5 44.125H25.75C25.135 44.125 24.625 43.615 24.625 43C24.625 42.385 25.135 41.875 25.75 41.875H38.5C42.79 41.875 44.875 39.79 44.875 35.5V26.5C44.875 22.21 42.79 20.125 38.5 20.125H23.5C19.21 20.125 17.125 22.21 17.125 26.5V35.95C17.125 36.565 16.615 37.075 16 37.075C15.385 37.075 14.875 36.565 14.875 35.95V26.5C14.875 21.025 18.025 17.875 23.5 17.875H38.5C43.975 17.875 47.125 21.025 47.125 26.5V35.5C47.125 40.975 43.975 44.125 38.5 44.125Z" fill="#00FF40"/>
</svg>
