<svg width="10" height="10" viewBox="0 0 10 10" fill="none" xmlns="http://www.w3.org/2000/svg">
<path fill-rule="evenodd" clip-rule="evenodd" d="M4.0625 7.5C5.96098 7.5 7.5 5.96098 7.5 4.0625C7.5 2.16402 5.96098 0.625 4.0625 0.625C2.16402 0.625 0.625 2.16402 0.625 4.0625C0.625 5.96098 2.16402 7.5 4.0625 7.5ZM8.125 4.0625C8.125 6.30616 6.30616 8.125 4.0625 8.125C1.81884 8.125 0 6.30616 0 4.0625C0 1.81884 1.81884 0 4.0625 0C6.30616 0 8.125 1.81884 8.125 4.0625Z" fill="#FFFFFF"/>
<path d="M6.46493 7.33885C6.48336 7.36384 6.50389 7.38778 6.52652 7.4104L8.93306 9.81694C9.17714 10.061 9.57287 10.061 9.81694 9.81694C10.061 9.57287 10.061 9.17714 9.81694 8.93306L7.4104 6.52652C7.38778 6.50389 7.36384 6.48336 7.33885 6.46493C7.09368 6.79872 6.79872 7.09368 6.46493 7.33885Z" fill="#FFFFFF"/>
</svg>
